<?xml version="1.0" encoding="UTF-8"?>
<svg id="Layer_1" data-name="Layer 1" xmlns="http://www.w3.org/2000/svg" viewBox="0 0 300.81 249.47">
  <defs>
    <style>
      .cls-1 {
        fill: #a9d6ff;
      }

      .cls-1, .cls-2, .cls-3 {
        stroke-width: 0px;
      }

      .cls-2 {
        fill: #000;
      }

      .cls-3 {
        fill: #64aeff;
      }
    </style>
  </defs>
  <path class="cls-2" d="M299.09,103.95c-1.18-7.05-2.99-14.05-5.37-20.79-2.54-7.19-5.77-14.19-9.59-20.79-1.31-2.25-2.69-4.48-4.1-6.61-3.3-4.96-6.99-9.74-10.98-14.19-3.08-3.43-6.38-6.73-9.81-9.81-4.46-3.99-9.23-7.68-14.19-10.97-2.18-1.45-4.4-2.83-6.6-4.1-6.62-3.83-13.62-7.06-20.79-9.59-6.74-2.39-13.74-4.19-20.79-5.37-6.83-1.15-13.82-1.73-20.79-1.73H52.85c-7.35,0-14.46,1.48-21.14,4.4-8.11,3.54-15.25,9.11-20.69,16.13l-.46.6c-4.68,6.22-7.96,13.53-9.51,21.14-.7,3.47-1.06,7.02-1.06,10.57s.36,7.11,1.06,10.57c1.54,7.6,4.83,14.91,9.51,21.14,5.49,7.31,12.8,13.09,21.14,16.73,6.68,2.92,13.79,4.4,21.14,4.4.59,0,1.18-.01,1.76-.03,5.97-.19,11.77-1.37,17.28-3.5v123.78h-28.63c-6.86,0-12.44,5.58-12.44,12.44v11.1h145.27c6.97,0,13.96-.58,20.79-1.73,7.05-1.18,14.05-2.99,20.79-5.37,7.18-2.53,14.18-5.76,20.79-9.59,2.2-1.27,4.42-2.65,6.6-4.1,4.96-3.29,9.73-6.98,14.19-10.98,3.43-3.08,6.74-6.38,9.81-9.81,3.99-4.45,7.68-9.23,10.98-14.19,1.42-2.13,2.8-4.35,4.1-6.61,3.82-6.6,7.05-13.6,9.59-20.79,2.39-6.74,4.19-13.74,5.37-20.79,1.15-6.83,1.73-13.82,1.73-20.79s-.58-13.96-1.73-20.79ZM154.04,64.62v161.31h-17.54V64.62h17.54ZM112.97,64.62v161.31h-17.54V84.15c4.34-5.89,7.34-12.45,8.95-19.53h8.59ZM177.58,64.62h20.54v-11.1c0-6.86-5.58-12.44-12.44-12.44H51.35v11.1c0,6.86,5.58,12.44,12.44,12.44h15.9c-1.68,3.81-4.17,7.26-7.31,10.07-3.57,3.2-7.92,5.49-12.56,6.62-2.27.56-4.62.84-6.97.84-7.23,0-14.16-2.65-19.54-7.46-3.67-3.28-6.47-7.45-8.1-12.07-1.11-3.13-1.67-6.42-1.67-9.77s.56-6.64,1.67-9.77c1.63-4.61,4.43-8.79,8.1-12.07,5.37-4.81,12.31-7.46,19.54-7.46h123.23c6.82,0,13.63.68,20.24,2.02,6.94,1.41,13.75,3.56,20.24,6.4,7.14,3.12,13.92,7.07,20.16,11.75l.09.07c7.67,5.76,14.48,12.56,20.23,20.23l.07.09c4.68,6.25,8.64,13.04,11.75,20.16,2.84,6.49,4.99,13.29,6.4,20.24,1.34,6.61,2.02,13.42,2.02,20.24s-.68,13.63-2.02,20.24c-1.41,6.94-3.56,13.75-6.4,20.24-3.11,7.12-7.06,13.9-11.74,20.15l-.07.1c-5.66,7.54-12.33,14.24-19.84,19.94h-1v.75c-6.09,4.51-12.7,8.33-19.65,11.37-6.48,2.84-13.29,4.99-20.24,6.4-6.13,1.24-12.43,1.92-18.74,2.01V64.62Z"/>
  <rect class="cls-3" x="135" y="63.12" width="20.54" height="164.31"/>
  <path class="cls-1" d="M114.47,227.43h-20.54v-41.07l-.02-.02h.02v-102.7c4.48-5.97,7.7-12.94,9.23-20.53h11.3v164.31Z"/>
</svg>